# xmcd CD database file
#
# Track frame offsets:
#	150
#	68824
#	101840
#	175288
#
# Disc length: 2393 seconds
#
# Revision: 0
# Processed by: cddbd v1.5.1PL0 Copyright (c) Steve Scherf et al.
# Submitted via: CDex 1.50
#
DISCID=32095704
DTITLE=Miles Davis - Quintet in Stockholm [CD2]
DYEAR=2004
DGENRE=Jazz
TTITLE0=So What
TTITLE1=Fran Dance
TTITLE2=Walkin'
TTITLE3=The Theme
EXTD=YEAR: 2004
EXTT0=
EXTT1=
EXTT2=
EXTT3=
PLAYORDER=
